<svg width="318" height="68" viewBox="0 0 318 68" fill="none" xmlns="http://www.w3.org/2000/svg">
<g style="mix-blend-mode:soft-light">
<path d="M219.507 66.8786L225.166 51.445L210.1 13.2286H220.169L227.665 33.8802C228.057 35.0071 228.449 36.379 228.841 37.9958C229.233 39.5637 229.527 40.862 229.723 41.8909C229.968 40.862 230.286 39.5637 230.678 37.9958C231.07 36.379 231.462 35.0071 231.854 33.8802L238.91 13.2286H248.611L229.135 66.8786H219.507Z" fill="#02025c"/>
<path d="M193.735 53.6499C191.089 53.6499 188.762 53.111 186.753 52.0331C184.793 50.9552 183.25 49.4363 182.123 47.4765C180.996 45.4677 180.432 43.1649 180.432 40.5682V8.30472H167.498V0H189.619V40.5682C189.619 42.038 190.036 43.2139 190.868 44.0958C191.75 44.9288 192.926 45.3452 194.396 45.3452H206.596V53.6499H193.735Z" fill="#02025c"/>
<path d="M127.788 53.65V13.2288H136.46V20.9456H138.738L136.019 25.6492C136.019 21.2886 136.999 18.0059 138.959 15.8011C140.919 13.5963 143.809 12.4939 147.631 12.4939C151.992 12.4939 155.421 13.8413 157.92 16.536C160.419 19.2308 161.668 22.9544 161.668 27.707V30.6467H152.041V28.3684C152.041 25.7716 151.355 23.7628 149.983 22.342C148.66 20.9211 146.823 20.2107 144.471 20.2107C142.07 20.2107 140.208 20.9211 138.885 22.342C137.611 23.7628 136.974 25.7716 136.974 28.3684V53.65H127.788Z" fill="#02025c"/>
<path d="M89.2616 54.3849C85.097 54.3849 81.8143 53.2826 79.4135 51.0778C77.0128 48.873 75.8124 45.9087 75.8124 42.1851C75.8124 38.2165 77.1353 35.1543 79.781 32.9985C82.4268 30.8427 86.1749 29.7648 91.0254 29.7648H101.094V26.3106C101.094 24.3508 100.457 22.8319 99.1832 21.754C97.9093 20.6271 96.17 20.0637 93.9652 20.0637C91.9564 20.0637 90.2905 20.5046 88.9676 21.3866C87.6448 22.2685 86.8608 23.4689 86.6159 24.9877H77.6497C78.0907 21.1661 79.8055 18.1284 82.7942 15.8746C85.7829 13.6208 89.6046 12.4939 94.2591 12.4939C99.2077 12.4939 103.103 13.7433 105.945 16.242C108.835 18.6918 110.281 22.0235 110.281 26.2371V53.65H101.388V46.5947H99.9181L101.388 44.6104C101.388 47.5991 100.286 49.9754 98.0808 51.7392C95.876 53.503 92.9363 54.3849 89.2616 54.3849ZM92.2748 47.4766C94.8716 47.4766 96.9784 46.8152 98.5952 45.4923C100.261 44.1694 101.094 42.4546 101.094 40.3478V35.4237H91.1724C89.3106 35.4237 87.8162 35.9627 86.6894 37.0406C85.5625 38.1185 84.999 39.5393 84.999 41.3032C84.999 43.214 85.636 44.7329 86.9098 45.8598C88.2327 46.9377 90.021 47.4766 92.2748 47.4766Z" fill="#02025c"/>
<path d="M44.0654 54.3849C40.6357 54.3849 37.647 53.7235 35.0992 52.4006C32.5515 51.0778 30.5672 49.2404 29.1463 46.8887C27.7744 44.4879 27.0885 41.6951 27.0885 38.5104V28.3684C27.0885 25.1837 27.7744 22.4155 29.1463 20.0637C30.5672 17.6629 32.5515 15.8011 35.0992 14.4782C37.647 13.1553 40.6357 12.4939 44.0654 12.4939C47.4461 12.4939 50.3858 13.1553 52.8846 14.4782C55.4323 15.8011 57.3922 17.6629 58.764 20.0637C60.1849 22.4155 60.8953 25.1837 60.8953 28.3684V35.6442H35.9812V38.5104C35.9812 41.3522 36.6671 43.508 38.039 44.9778C39.4108 46.3987 41.4442 47.1091 44.1389 47.1091C46.1967 47.1091 47.8625 46.7662 49.1364 46.0802C50.4103 45.3453 51.2187 44.2919 51.5617 42.92H60.6013C59.9154 46.3987 58.0536 49.1914 55.0159 51.2982C52.0272 53.356 48.377 54.3849 44.0654 54.3849ZM52.0027 30.4997V28.2949C52.0027 25.5022 51.3412 23.3709 50.0183 21.901C48.6955 20.3822 46.7112 19.6227 44.0654 19.6227C41.4197 19.6227 39.4108 20.3822 38.039 21.901C36.6671 23.4199 35.9812 25.5757 35.9812 28.3684V29.9118L52.6641 29.7648L52.0027 30.4997Z" fill="#02025c"/>
<rect x="245.523" y="42.2526" width="39.3715" height="11.5234" fill="#02025c"/>
</g>
</svg>
