<svg width="174" height="155" viewBox="0 0 174 155" fill="none" xmlns="http://www.w3.org/2000/svg">
<g style="mix-blend-mode:soft-light" clip-path="url(#clip0_11_80)">
<path d="M171.56 8.60518C168.627 3.52534 163.163 0.370117 157.296 0.370117H35.6827L51.4757 27.7244H138.444L94.9598 103.042L110.753 130.396L171.56 25.0753C174.494 19.9954 174.494 13.685 171.56 8.60518Z" fill="#02025c"/>
<path d="M87.0723 116.719L35.6917 27.7244H35.7391L19.9495 0.370117H16.8399C10.9747 0.370117 5.50892 3.52534 2.57545 8.60518C-0.358026 13.685 -0.356333 19.9954 2.57545 25.0753L72.8078 146.722C75.7396 151.802 81.2054 154.957 87.0706 154.957C92.9359 154.957 98.4016 151.802 101.335 146.722L102.881 144.046L87.0892 116.688L87.0723 116.719ZM77.6456 133.045C77.649 133.038 77.654 133.032 77.6574 133.025C77.654 133.032 77.6507 133.038 77.6456 133.045Z" fill="#02025c"/>
</g>
<defs>
<clipPath id="clip0_11_80">
<rect width="173.811" height="155" fill="#02025c"/>
</clipPath>
</defs>
</svg>
