<svg width="158" height="158" viewBox="0 0 158 158" fill="none" xmlns="http://www.w3.org/2000/svg">
<g style="mix-blend-mode:overlay">
<path d="M79 18.7504C89.3622 18.7504 97.7625 14.553 97.7625 9.37522C97.7625 4.19743 89.3622 0 79 0C68.6378 0 60.2375 4.19743 60.2375 9.37522C60.2375 14.553 68.6378 18.7504 79 18.7504Z" fill="#02025c"/>
<path fill-rule="evenodd" clip-rule="evenodd" d="M18.0219 39.8447L3.95001 46.8761V104.971C3.95001 115.375 9.69654 124.929 18.89 129.81L65.7962 154.713C69.9243 156.904 74.4622 158 79 158V84.377L154.05 46.8761L139.978 39.8447L139.978 46.8764C139.978 52.0542 131.578 56.2523 121.216 56.2523C110.853 56.2523 102.453 52.0549 102.453 46.8771L102.453 46.8586V28.1442C102.473 33.3135 110.866 37.5009 121.216 37.5009C131.578 37.5009 139.978 33.3035 139.978 28.1257C139.978 22.9479 131.578 18.7504 121.216 18.7504C114.837 18.7504 109.201 20.3412 105.811 22.7721L97.7625 18.7504L97.7625 28.1259C97.7625 33.2719 89.4652 37.4502 79.1909 37.5014L79 37.5009L78.8091 37.5014C68.5348 37.4502 60.2375 33.2726 60.2375 28.1266L60.2375 28.1082V18.7504L52.189 22.7721C48.7991 20.3412 43.1635 18.7504 36.7844 18.7504C26.4221 18.7504 18.0219 22.9479 18.0219 28.1257C18.0219 33.3035 26.4221 37.5009 36.7844 37.5009C47.1464 37.5009 55.5466 33.3036 55.5469 28.1259L55.5469 46.8764C55.5469 52.0542 47.1466 56.2523 36.7844 56.2523C26.4221 56.2523 18.0219 52.0549 18.0219 46.8771L18.0219 46.8586V39.8447ZM79 56.2513C68.6501 56.2513 60.2575 52.0639 60.2375 46.8946V65.609L60.2375 65.6275C60.2375 70.8053 68.6378 75.0027 79 75.0027C89.3622 75.0027 97.7625 70.8053 97.7625 65.6275L97.7625 46.8764C97.7622 52.0541 89.3621 56.2513 79 56.2513Z" fill="#02025c"/>
</g>
</svg>
